<?xml version="1.0" encoding="UTF-8" standalone="no"?>
<!DOCTYPE svg PUBLIC "-//W3C//DTD SVG 1.1//EN"
 "http://www.w3.org/Graphics/SVG/1.1/DTD/svg11.dtd">
<!-- Generated by graphviz version 12.0.0 (20240704.0754)
 -->
<!-- Pages: 1 -->
<svg width="665pt" height="194pt"
 viewBox="0.00 0.00 664.75 194.25" xmlns="http://www.w3.org/2000/svg" xmlns:xlink="http://www.w3.org/1999/xlink">
<g id="graph0" class="graph" transform="scale(1 1) rotate(0) translate(4 190.25)">
<polygon fill="white" stroke="none" points="-4,4 -4,-190.25 660.75,-190.25 660.75,4 -4,4"/>
<!-- 0 -->
<g id="node1" class="node">
<title>0</title>
<polygon fill="none" stroke="black" points="95.5,-186.25 0,-186.25 0,-150.25 95.5,-150.25 95.5,-186.25"/>
<text text-anchor="middle" x="47.75" y="-163.97" font-family="Times,serif" font-size="12.00">Prepare Peptoids</text>
</g>
<!-- 1 -->
<g id="node2" class="node">
<title>1</title>
<polygon fill="none" stroke="black" points="224.38,-186.25 113.12,-186.25 113.12,-150.25 224.38,-150.25 224.38,-186.25"/>
<text text-anchor="middle" x="168.75" y="-163.97" font-family="Times,serif" font-size="12.00">Force Fields Choice</text>
</g>
<!-- 0&#45;&gt;1 -->
<g id="edge1" class="edge">
<title>0&#45;&gt;1</title>
<path fill="none" stroke="black" d="M95.96,-168.25C97.8,-168.25 99.63,-168.25 101.47,-168.25"/>
<polygon fill="black" stroke="black" points="101.22,-171.75 111.22,-168.25 101.22,-164.75 101.22,-171.75"/>
</g>
<!-- 1.1 -->
<g id="node3" class="node">
<title>1.1</title>
<polygon fill="none" stroke="black" points="123.25,-89 123.25,-110.25 202.25,-110.25 202.25,-89 123.25,-89"/>
<text text-anchor="start" x="146.25" y="-95.75" font-family="Times,serif" font-size="10.00">GAFF 1</text>
<polygon fill="none" stroke="black" points="123.25,-67.75 123.25,-89 202.25,-89 202.25,-67.75 123.25,-67.75"/>
<text text-anchor="start" x="146.25" y="-74.5" font-family="Times,serif" font-size="10.00">GAFF 2</text>
<polygon fill="none" stroke="black" points="123.25,-46.5 123.25,-67.75 202.25,-67.75 202.25,-46.5 123.25,-46.5"/>
<text text-anchor="start" x="138.75" y="-53.25" font-family="Times,serif" font-size="10.00">OpenFF 2.0</text>
<polygon fill="none" stroke="black" points="123.25,-25.25 123.25,-46.5 202.25,-46.5 202.25,-25.25 123.25,-25.25"/>
<text text-anchor="start" x="140.62" y="-32" font-family="Times,serif" font-size="10.00">MEFTOID</text>
<polygon fill="none" stroke="black" points="123.25,-4 123.25,-25.25 202.25,-25.25 202.25,-4 123.25,-4"/>
<text text-anchor="start" x="128.25" y="-10.75" font-family="Times,serif" font-size="10.00">CGenFF&#45;NTOID</text>
</g>
<!-- 1&#45;&gt;1.1 -->
<g id="edge2" class="edge">
<title>1&#45;&gt;1.1</title>
<path fill="none" stroke="black" d="M167.81,-150.2C167.42,-143.12 166.94,-134.42 166.44,-125.21"/>
<polygon fill="none" stroke="black" points="169.94,-125.11 165.89,-115.32 162.95,-125.49 169.94,-125.11"/>
</g>
<!-- 2 -->
<g id="node4" class="node">
<title>2</title>
<polygon fill="none" stroke="black" points="320.75,-186.25 248.75,-186.25 248.75,-150.25 320.75,-150.25 320.75,-186.25"/>
<text text-anchor="middle" x="284.75" y="-163.97" font-family="Times,serif" font-size="12.00">Preparation</text>
</g>
<!-- 1&#45;&gt;2 -->
<g id="edge3" class="edge">
<title>1&#45;&gt;2</title>
<path fill="none" stroke="black" d="M224.48,-168.25C228.74,-168.25 232.99,-168.25 237.24,-168.25"/>
<polygon fill="black" stroke="black" points="236.98,-171.75 246.98,-168.25 236.98,-164.75 236.98,-171.75"/>
</g>
<!-- 2.1 -->
<g id="node5" class="node">
<title>2.1</title>
<polygon fill="none" stroke="black" points="236.62,-57.12 236.62,-78.38 332.88,-78.38 332.88,-57.12 236.62,-57.12"/>
<text text-anchor="start" x="266.38" y="-63.88" font-family="Times,serif" font-size="10.00">Sovation</text>
<polygon fill="none" stroke="black" points="236.62,-35.88 236.62,-57.12 332.88,-57.12 332.88,-35.88 236.62,-35.88"/>
<text text-anchor="start" x="241.62" y="-42.62" font-family="Times,serif" font-size="10.00">Adding Counter Ions</text>
</g>
<!-- 2&#45;&gt;2.1 -->
<g id="edge4" class="edge">
<title>2&#45;&gt;2.1</title>
<path fill="none" stroke="black" d="M284.75,-150.2C284.75,-135.11 284.75,-112.6 284.75,-93.61"/>
<polygon fill="none" stroke="black" points="288.25,-93.86 284.75,-83.86 281.25,-93.86 288.25,-93.86"/>
</g>
<!-- 3 -->
<g id="node6" class="node">
<title>3</title>
<polygon fill="none" stroke="black" points="455.25,-186.25 364.25,-186.25 364.25,-150.25 455.25,-150.25 455.25,-186.25"/>
<text text-anchor="middle" x="409.75" y="-163.97" font-family="Times,serif" font-size="12.00">Production Run</text>
</g>
<!-- 2&#45;&gt;3 -->
<g id="edge5" class="edge">
<title>2&#45;&gt;3</title>
<path fill="none" stroke="black" d="M320.88,-168.25C331.42,-168.25 341.96,-168.25 352.49,-168.25"/>
<polygon fill="black" stroke="black" points="352.41,-171.75 362.41,-168.25 352.41,-164.75 352.41,-171.75"/>
</g>
<!-- 3.1 -->
<g id="node7" class="node">
<title>3.1</title>
<polygon fill="none" stroke="black" points="367.12,-67.75 367.12,-89 454.38,-89 454.38,-67.75 367.12,-67.75"/>
<text text-anchor="start" x="372.12" y="-74.5" font-family="Times,serif" font-size="10.00">Energy Minization</text>
<polygon fill="none" stroke="black" points="367.12,-46.5 367.12,-67.75 454.38,-67.75 454.38,-46.5 367.12,-46.5"/>
<text text-anchor="start" x="400.25" y="-53.25" font-family="Times,serif" font-size="10.00">NVT</text>
<polygon fill="none" stroke="black" points="367.12,-25.25 367.12,-46.5 454.38,-46.5 454.38,-25.25 367.12,-25.25"/>
<text text-anchor="start" x="401.38" y="-32" font-family="Times,serif" font-size="10.00">NPT</text>
</g>
<!-- 3&#45;&gt;3.1 -->
<g id="edge6" class="edge">
<title>3&#45;&gt;3.1</title>
<path fill="none" stroke="black" d="M409.91,-150.2C410.02,-137.73 410.18,-120.2 410.33,-103.77"/>
<polygon fill="none" stroke="black" points="413.83,-104.2 410.42,-94.17 406.83,-104.13 413.83,-104.2"/>
</g>
<!-- 4 -->
<g id="node8" class="node">
<title>4</title>
<polygon fill="none" stroke="black" points="562.5,-186.25 473,-186.25 473,-150.25 562.5,-150.25 562.5,-186.25"/>
<text text-anchor="middle" x="517.75" y="-163.97" font-family="Times,serif" font-size="12.00">MD Simulation</text>
</g>
<!-- 3&#45;&gt;4 -->
<g id="edge7" class="edge">
<title>3&#45;&gt;4</title>
<path fill="none" stroke="black" d="M455.73,-168.25C457.59,-168.25 459.44,-168.25 461.3,-168.25"/>
<polygon fill="black" stroke="black" points="461.18,-171.75 471.18,-168.25 461.18,-164.75 461.18,-171.75"/>
</g>
<!-- 4.1 -->
<g id="node9" class="node">
<title>4.1</title>
<polygon fill="none" stroke="black" points="553.75,-75.12 481.75,-75.12 481.75,-39.12 553.75,-39.12 553.75,-75.12"/>
<text text-anchor="middle" x="517.75" y="-52.85" font-family="Times,serif" font-size="12.00">HREMD</text>
</g>
<!-- 4&#45;&gt;4.1 -->
<g id="edge8" class="edge">
<title>4&#45;&gt;4.1</title>
<path fill="none" stroke="black" d="M517.75,-150.2C517.75,-133.24 517.75,-106.91 517.75,-86.75"/>
<polygon fill="none" stroke="black" points="521.25,-86.93 517.75,-76.93 514.25,-86.93 521.25,-86.93"/>
</g>
<!-- 5 -->
<g id="node10" class="node">
<title>5</title>
<polygon fill="none" stroke="black" points="652.75,-186.25 580.75,-186.25 580.75,-150.25 652.75,-150.25 652.75,-186.25"/>
<text text-anchor="middle" x="616.75" y="-163.97" font-family="Times,serif" font-size="12.00">Analysis</text>
</g>
<!-- 4&#45;&gt;5 -->
<g id="edge9" class="edge">
<title>4&#45;&gt;5</title>
<path fill="none" stroke="black" d="M563,-168.25C565.11,-168.25 567.22,-168.25 569.33,-168.25"/>
<polygon fill="black" stroke="black" points="569.12,-171.75 579.12,-168.25 569.12,-164.75 569.12,-171.75"/>
</g>
<!-- 5.1 -->
<g id="node11" class="node">
<title>5.1</title>
<polygon fill="none" stroke="black" points="584.75,-67.75 584.75,-89 648.75,-89 648.75,-67.75 584.75,-67.75"/>
<text text-anchor="start" x="589.75" y="-74.5" font-family="Times,serif" font-size="10.00">Featurization</text>
<polygon fill="none" stroke="black" points="584.75,-46.5 584.75,-67.75 648.75,-67.75 648.75,-46.5 584.75,-46.5"/>
<text text-anchor="start" x="595.38" y="-53.25" font-family="Times,serif" font-size="10.00">Clustering</text>
<polygon fill="none" stroke="black" points="584.75,-25.25 584.75,-46.5 648.75,-46.5 648.75,-25.25 584.75,-25.25"/>
<text text-anchor="start" x="601.75" y="-32" font-family="Times,serif" font-size="10.00">BICePs</text>
</g>
<!-- 5&#45;&gt;5.1 -->
<g id="edge10" class="edge">
<title>5&#45;&gt;5.1</title>
<path fill="none" stroke="black" d="M616.75,-150.2C616.75,-137.73 616.75,-120.2 616.75,-103.77"/>
<polygon fill="none" stroke="black" points="620.25,-104.17 616.75,-94.17 613.25,-104.17 620.25,-104.17"/>
</g>
</g>
</svg>
